<svg width="754" height="800" viewBox="0 0 754 800" fill="none" xmlns="http://www.w3.org/2000/svg">
<path d="M407.005 172.453C405.983 153.368 386.479 156.615 367.449 156.615C381.506 160.359 394.805 165.568 407.005 172.453Z" fill="#D9D9D9"/>
<path d="M203.569 124.625C129.69 124.625 95.6853 218.135 154.744 265.166C174.877 211.407 214.956 172.807 267.497 157.571C253.125 137.701 229.903 124.625 203.569 124.625Z" fill="#D9D9D9"/>
<path d="M50.9452 250.532C53.9559 260.193 57.8568 269.461 62.4909 278.242L38.2228 302.524C31.7057 309.041 31.7057 319.619 38.2228 326.15L80.9988 368.939C84.1141 372.054 88.3824 373.808 92.8311 373.808C97.2309 373.808 101.471 372.054 104.64 368.939L128.881 344.658C132.519 346.583 136.551 347.763 140.319 349.423C140.319 349.147 140.292 348.86 140.292 348.584C140.292 328.741 142.571 310.022 146.629 292.445C117.361 273.608 97.8311 240.911 97.8311 203.58C97.8311 145.267 145.266 97.8176 203.567 97.8176C243.044 97.8176 277.128 119.795 295.322 151.903C314.747 149.494 332.994 149.494 354.957 153.645C352.132 145.098 348.808 136.733 344.644 128.893L368.912 104.599C372.078 101.471 373.831 97.2158 373.831 92.7923C373.831 88.3672 372.078 84.1141 368.912 80.9853L326.16 38.2228C322.889 34.9507 318.621 33.3274 314.354 33.3274C310.086 33.3274 305.819 34.9507 302.573 38.2228L278.227 62.5162C269.432 57.8568 260.191 53.9559 250.506 51.0109V16.689C250.506 7.47463 243.071 0 233.829 0H173.331C164.142 0 156.627 7.47463 156.627 16.689V51.0092C146.967 53.9543 137.724 57.8551 128.903 62.5145L104.64 38.2481C101.366 34.976 97.0994 33.3526 92.8311 33.3526C88.5645 33.3526 84.2725 34.976 81.0258 38.2346L38.2228 80.9971C35.1075 84.1394 33.3543 88.379 33.3543 92.8176C33.3543 97.2545 35.1075 101.496 38.2228 104.625L62.4909 128.905C57.8551 137.701 53.9559 146.956 50.9991 156.615H16.7041C7.46283 156.615 0 164.101 0 173.329V233.829C0 243.03 7.46283 250.532 16.7041 250.532H50.9452Z" fill="#D9D9D9"/>
<path d="M575.019 574.259C601.776 559.584 620.152 531.496 620.152 498.901C620.152 451.334 581.435 412.644 533.868 412.644C517.141 412.644 501.64 417.644 488.395 425.916C480.464 457.487 467.976 487.685 451.641 513.916C497.948 522.621 540.438 543.708 575.019 574.259Z" fill="#D9D9D9"/>
<path d="M753.559 466.259C753.559 456.298 745.469 448.234 735.547 448.234H698.533C695.337 437.8 691.097 427.801 686.07 418.311L712.273 392.108C715.679 388.73 717.562 384.15 717.562 379.372C717.562 374.593 715.677 370.011 712.273 366.623L666.146 320.482C662.64 316.959 658.006 315.192 653.4 315.192C648.791 315.192 644.184 316.959 640.678 320.482L614.42 346.699C604.941 341.672 594.968 337.459 584.497 334.277V297.261C584.497 287.313 576.459 279.249 566.511 279.249H501.249C496.876 279.249 493.028 281.002 489.889 283.594C495.384 303.646 498.395 325.389 498.395 348.584C498.395 363.309 497.245 378.26 495.098 393.126C507.244 388.649 520.175 385.837 533.868 385.837C596.224 385.837 646.959 436.56 646.959 498.901C646.959 538.747 626.148 573.669 594.916 593.814C617.64 618.736 635.703 648.304 647.458 681.432C649.393 682.1 651.409 682.585 653.425 682.585C658.033 682.585 662.641 680.832 666.175 677.309L712.329 631.168C715.707 627.79 717.565 623.21 717.565 618.432C717.565 613.655 715.707 609.075 712.329 605.683L686.072 579.466C691.099 569.991 695.338 559.987 698.534 549.544H735.549C740.313 549.544 744.947 547.659 748.298 544.254C751.676 540.889 753.588 536.297 753.588 531.518L753.559 466.259Z" fill="#D9D9D9"/>
<path d="M610.701 697.744C582.715 615.398 508.762 558.762 423.392 551.053C394.805 581.326 359.411 600.531 319.329 600.531C279.277 600.531 243.856 581.327 215.296 551.053C129.875 558.762 55.9198 615.398 27.9329 697.757L12.4627 743.294C8.03759 756.398 10.1566 770.836 18.2212 782.079C26.2842 793.324 39.2696 800 53.0911 800H585.542C599.39 800 612.375 793.324 620.44 782.079C628.476 770.836 630.624 756.398 626.172 743.294L610.701 697.744Z" fill="#D9D9D9"/>
<path d="M180.504 348.584C180.504 450.722 242.68 560.319 319.329 560.319C396.009 560.319 458.181 450.722 458.181 348.584C458.183 136.863 180.504 136.443 180.504 348.584Z" fill="#D9D9D9"/>
</svg>
