<svg width="201" height="200" viewBox="0 0 201 200" fill="none" xmlns="http://www.w3.org/2000/svg">
<path d="M106.031 39.3024C113.85 43.313 122.861 38.8157 126.144 29.2413C129.428 19.6707 125.74 8.66638 117.918 4.65571C110.087 0.637388 101.086 5.14665 97.8022 14.7091C94.519 24.2759 98.2037 35.2917 106.031 39.3024Z" fill="white"/>
<path d="M138.194 36.358C141.524 37.2707 144.827 34.7018 145.567 30.6295C146.31 26.5615 144.212 22.5241 140.885 21.611C137.558 20.7064 134.249 23.2753 133.508 27.3476C132.762 31.4118 134.86 35.453 138.194 36.358Z" fill="white"/>
<path d="M198.73 182.477L178.128 176.127L155.612 37.9033L166.097 40.177L167.304 33.5664L147.126 26.9133L145.52 35.7132L150.66 36.8292L150.692 37.0174C148.543 36.9405 146.473 38.432 145.576 40.9937L132.558 66.4418L118.743 56.4189L42.8774 1.20881C40.1176 -1.01526 36.4102 -0.0835087 34.5914 3.29056C32.7758 6.66129 33.5375 11.1973 36.2977 13.4171L75.2622 50.1426C76.3724 51.0973 76.6106 53.1298 75.6071 55.4456C74.0985 58.919 2.4543 176.948 2.4543 176.948C-0.396486 180.89 -0.0925791 186.91 3.13164 190.399C6.35899 193.884 11.2891 193.513 14.1403 189.567L68.695 127.121C70.2567 125.211 71.1255 124.149 75.2903 127.539L99.4767 144.517L102.024 187.861C102.045 192.6 105.21 196.415 109.083 196.38C112.96 196.35 116.08 192.489 116.058 187.753L118.291 139.927C118.501 135.024 117.46 131.994 114.408 128.501L91.6044 102.086C91.6044 102.086 106.458 83.3288 109.033 80.6138C110.212 79.3602 111.303 77.1132 113.226 77.8993L131.517 86.8027C136.331 89.6744 138.903 86.1699 141.399 83.3785L153.172 52.2549L173.558 177.435L157.707 195.011C156.751 196.077 156.679 197.891 157.547 199.057C158.008 199.682 158.645 200 159.288 200C159.846 200 160.411 199.755 160.856 199.256L176.76 181.619L197.582 188.03C197.776 188.091 197.967 188.118 198.159 188.118C199.203 188.118 200.163 187.252 200.429 185.955C200.743 184.417 199.984 182.86 198.73 182.477Z" fill="white"/>
</svg>
