<svg width="201" height="200" viewBox="0 0 201 200" fill="none" xmlns="http://www.w3.org/2000/svg">
<mask id="path-1-inside-1_1_337" fill="white">
<path d="M188.088 81.0574L172.046 77.5014C170.796 73.5017 169.158 69.6769 167.283 65.9959L175.964 51.5405C179.201 46.3596 180.839 38.7476 175.964 33.8604L167.121 25.0234C162.246 20.1425 154.009 21.0237 149.034 24.4735L134.967 33.4354C131.317 31.5418 127.498 29.9169 123.536 28.6357L119.936 12.3992C118.861 6.44335 113.655 0 106.75 0H94.2504C87.3508 0 83.1198 6.54334 81.7512 12.4992L77.7389 28.542C73.5017 29.8919 69.4394 31.6168 65.5647 33.6604L51.1406 24.4735C46.1721 21.0237 37.9289 20.1487 33.0542 25.0234L24.211 33.8604C19.3301 38.7476 20.9675 46.3596 24.211 51.5343L33.3417 66.7521C31.6293 70.2019 30.1106 73.7704 28.9357 77.5014L12.8992 81.0574C6.94335 82.1261 0.5 87.3383 0.5 94.2379V106.737C0.5 113.643 7.04334 117.874 12.9992 119.236L29.2357 123.292C30.3544 126.736 31.7605 130.042 33.3479 133.248L24.211 148.484C20.9737 153.659 19.3363 161.277 24.211 166.158L33.0542 174.995C37.9289 179.883 46.1659 178.995 51.1406 175.552L65.5959 166.34C69.4894 168.396 73.5767 170.139 77.8452 171.483L81.8449 187.476C83.2136 193.432 87.4446 199.975 94.3441 199.975H106.843C113.749 199.975 118.955 193.525 120.03 187.57L123.636 171.296C127.561 170.027 131.323 168.427 134.935 166.558L149.034 175.545C154.009 178.995 162.246 179.87 167.127 174.989L175.97 166.152C180.845 161.265 179.208 153.653 175.97 148.478L167.283 133.998C169.027 130.567 170.539 126.998 171.758 123.286L188.001 119.23C193.957 117.861 200.5 113.637 200.5 106.731V94.2316C200.5 87.332 194.057 82.1199 188.095 81.0449L188.088 81.0574ZM188.001 105.862C187.47 106.243 186.47 106.768 185.201 107.062L162.027 112.849L159.878 119.418C158.909 122.38 157.653 125.38 156.147 128.342L153.009 134.504L165.252 154.922C166.033 156.171 166.396 157.29 166.508 157.953L158.284 166.165C157.49 165.915 156.59 165.59 156.153 165.29L135.579 152.172L129.186 155.478C126.105 157.078 122.942 158.403 119.793 159.421L112.98 161.621L107.831 184.888C107.593 186.132 106.925 187.138 106.468 187.495H95.2191C94.8379 186.963 94.3129 185.963 94.0254 184.695L88.2695 161.69L81.6074 159.578C78.1764 158.496 74.7516 157.053 71.4206 155.303L64.996 151.909L44.416 165.027C43.5723 165.596 42.6724 165.921 41.8599 165.921L33.6667 157.946C33.7792 157.296 34.1166 156.234 34.7979 155.14L47.5783 133.842L44.5347 127.717C43.1161 124.83 41.9912 122.124 41.1162 119.436L38.9726 112.862L16.0303 107.125C14.5866 106.8 13.5429 106.256 12.9992 105.875V94.2504C12.9992 94.2504 13.0117 94.2566 13.0305 94.2566C13.243 94.2566 14.2679 93.5254 15.1241 93.3692L38.6976 88.1507L40.86 81.2574C41.7412 78.4513 42.9411 75.5265 44.5347 72.3205L47.5783 66.1959L34.9291 45.1159C34.1479 43.8598 33.7792 42.7411 33.6729 42.0849L41.8912 33.8729C42.6911 34.1291 43.5848 34.4541 44.016 34.7478L64.9772 48.1095L71.3956 44.7222C74.6891 42.9848 78.1014 41.5537 81.5324 40.46L88.1758 38.3476L93.8754 15.5428C94.2066 14.0991 94.7379 13.0554 95.1253 12.5117H106.743C106.656 12.6367 107.462 13.7304 107.631 14.6303L112.88 38.3414L119.686 40.5412C122.88 41.5724 126.08 42.9161 129.204 44.5347L135.598 47.8595L155.747 35.0291C156.59 34.4541 157.49 34.1354 158.303 34.1354L166.508 42.1099C166.402 42.7598 166.058 43.8348 165.377 44.9222L153.003 65.5209L156.159 71.6955C157.865 75.0266 159.159 78.1514 160.128 81.2512L162.29 88.1507L185.395 93.2754C186.795 93.5317 187.882 94.3441 188.107 94.7816L188.001 105.862ZM100.581 62.4336C79.8263 62.4336 62.9398 79.2888 62.9398 99.9938C62.9398 120.699 79.8263 137.554 100.581 137.554C121.336 137.554 138.223 120.699 138.223 100C138.223 79.295 121.336 62.4398 100.581 62.4398V62.4336ZM100.5 124.992C86.7196 124.992 75.5016 113.78 75.5016 99.9938C75.5016 86.2071 86.7134 74.9953 100.5 74.9953C114.287 74.9953 125.498 86.2071 125.498 99.9938C125.498 113.78 114.287 124.992 100.5 124.992Z"/>
</mask>
<path d="M188.088 81.0574L172.046 77.5014C170.796 73.5017 169.158 69.6769 167.283 65.9959L175.964 51.5405C179.201 46.3596 180.839 38.7476 175.964 33.8604L167.121 25.0234C162.246 20.1425 154.009 21.0237 149.034 24.4735L134.967 33.4354C131.317 31.5418 127.498 29.9169 123.536 28.6357L119.936 12.3992C118.861 6.44335 113.655 0 106.75 0H94.2504C87.3508 0 83.1198 6.54334 81.7512 12.4992L77.7389 28.542C73.5017 29.8919 69.4394 31.6168 65.5647 33.6604L51.1406 24.4735C46.1721 21.0237 37.9289 20.1487 33.0542 25.0234L24.211 33.8604C19.3301 38.7476 20.9675 46.3596 24.211 51.5343L33.3417 66.7521C31.6293 70.2019 30.1106 73.7704 28.9357 77.5014L12.8992 81.0574C6.94335 82.1261 0.5 87.3383 0.5 94.2379V106.737C0.5 113.643 7.04334 117.874 12.9992 119.236L29.2357 123.292C30.3544 126.736 31.7605 130.042 33.3479 133.248L24.211 148.484C20.9737 153.659 19.3363 161.277 24.211 166.158L33.0542 174.995C37.9289 179.883 46.1659 178.995 51.1406 175.552L65.5959 166.34C69.4894 168.396 73.5767 170.139 77.8452 171.483L81.8449 187.476C83.2136 193.432 87.4446 199.975 94.3441 199.975H106.843C113.749 199.975 118.955 193.525 120.03 187.57L123.636 171.296C127.561 170.027 131.323 168.427 134.935 166.558L149.034 175.545C154.009 178.995 162.246 179.87 167.127 174.989L175.97 166.152C180.845 161.265 179.208 153.653 175.97 148.478L167.283 133.998C169.027 130.567 170.539 126.998 171.758 123.286L188.001 119.23C193.957 117.861 200.5 113.637 200.5 106.731V94.2316C200.5 87.332 194.057 82.1199 188.095 81.0449L188.088 81.0574ZM188.001 105.862C187.47 106.243 186.47 106.768 185.201 107.062L162.027 112.849L159.878 119.418C158.909 122.38 157.653 125.38 156.147 128.342L153.009 134.504L165.252 154.922C166.033 156.171 166.396 157.29 166.508 157.953L158.284 166.165C157.49 165.915 156.59 165.59 156.153 165.29L135.579 152.172L129.186 155.478C126.105 157.078 122.942 158.403 119.793 159.421L112.98 161.621L107.831 184.888C107.593 186.132 106.925 187.138 106.468 187.495H95.2191C94.8379 186.963 94.3129 185.963 94.0254 184.695L88.2695 161.69L81.6074 159.578C78.1764 158.496 74.7516 157.053 71.4206 155.303L64.996 151.909L44.416 165.027C43.5723 165.596 42.6724 165.921 41.8599 165.921L33.6667 157.946C33.7792 157.296 34.1166 156.234 34.7979 155.14L47.5783 133.842L44.5347 127.717C43.1161 124.83 41.9912 122.124 41.1162 119.436L38.9726 112.862L16.0303 107.125C14.5866 106.8 13.5429 106.256 12.9992 105.875V94.2504C12.9992 94.2504 13.0117 94.2566 13.0305 94.2566C13.243 94.2566 14.2679 93.5254 15.1241 93.3692L38.6976 88.1507L40.86 81.2574C41.7412 78.4513 42.9411 75.5265 44.5347 72.3205L47.5783 66.1959L34.9291 45.1159C34.1479 43.8598 33.7792 42.7411 33.6729 42.0849L41.8912 33.8729C42.6911 34.1291 43.5848 34.4541 44.016 34.7478L64.9772 48.1095L71.3956 44.7222C74.6891 42.9848 78.1014 41.5537 81.5324 40.46L88.1758 38.3476L93.8754 15.5428C94.2066 14.0991 94.7379 13.0554 95.1253 12.5117H106.743C106.656 12.6367 107.462 13.7304 107.631 14.6303L112.88 38.3414L119.686 40.5412C122.88 41.5724 126.08 42.9161 129.204 44.5347L135.598 47.8595L155.747 35.0291C156.59 34.4541 157.49 34.1354 158.303 34.1354L166.508 42.1099C166.402 42.7598 166.058 43.8348 165.377 44.9222L153.003 65.5209L156.159 71.6955C157.865 75.0266 159.159 78.1514 160.128 81.2512L162.29 88.1507L185.395 93.2754C186.795 93.5317 187.882 94.3441 188.107 94.7816L188.001 105.862ZM100.581 62.4336C79.8263 62.4336 62.9398 79.2888 62.9398 99.9938C62.9398 120.699 79.8263 137.554 100.581 137.554C121.336 137.554 138.223 120.699 138.223 100C138.223 79.295 121.336 62.4398 100.581 62.4398V62.4336ZM100.5 124.992C86.7196 124.992 75.5016 113.78 75.5016 99.9938C75.5016 86.2071 86.7134 74.9953 100.5 74.9953C114.287 74.9953 125.498 86.2071 125.498 99.9938C125.498 113.78 114.287 124.992 100.5 124.992Z" fill="white" stroke="white" stroke-width="50" mask="url(#path-1-inside-1_1_337)"/>
</svg>
