<svg width="1363" height="163" viewBox="0 0 1363 163" fill="none" xmlns="http://www.w3.org/2000/svg">
<path d="M0 15C0 6.71573 6.71573 0 15 0H37V163H15C6.71573 163 0 156.284 0 148V15Z" fill="#1E1E1E"/>
<rect width="1097" height="163" transform="translate(37)" fill="#F0F0F0"/>
<path d="M101.906 53.9219L94.3945 51.2383V48.0859L104.602 52.375V54.6367L101.906 53.9219ZM94.3945 56.1719L101.918 53.4297L104.602 52.7852V55.0352L94.3945 59.3242V56.1719ZM119.543 54.918H115.195V52.1758H119.543C120.215 52.1758 120.762 52.0664 121.184 51.8477C121.605 51.6211 121.914 51.3086 122.109 50.9102C122.305 50.5117 122.402 50.0625 122.402 49.5625C122.402 49.0547 122.305 48.582 122.109 48.1445C121.914 47.707 121.605 47.3555 121.184 47.0898C120.762 46.8242 120.215 46.6914 119.543 46.6914H116.414V61H112.898V43.9375H119.543C120.879 43.9375 122.023 44.1797 122.977 44.6641C123.938 45.1406 124.672 45.8008 125.18 46.6445C125.688 47.4883 125.941 48.4531 125.941 49.5391C125.941 50.6406 125.688 51.5938 125.18 52.3984C124.672 53.2031 123.938 53.8242 122.977 54.2617C122.023 54.6992 120.879 54.918 119.543 54.918ZM127.453 54.7891V54.543C127.453 53.6133 127.586 52.7578 127.852 51.9766C128.117 51.1875 128.504 50.5039 129.012 49.9258C129.52 49.3477 130.145 48.8984 130.887 48.5781C131.629 48.25 132.48 48.0859 133.441 48.0859C134.402 48.0859 135.258 48.25 136.008 48.5781C136.758 48.8984 137.387 49.3477 137.895 49.9258C138.41 50.5039 138.801 51.1875 139.066 51.9766C139.332 52.7578 139.465 53.6133 139.465 54.543V54.7891C139.465 55.7109 139.332 56.5664 139.066 57.3555C138.801 58.1367 138.41 58.8203 137.895 59.4062C137.387 59.9844 136.762 60.4336 136.02 60.7539C135.277 61.0742 134.426 61.2344 133.465 61.2344C132.504 61.2344 131.648 61.0742 130.898 60.7539C130.156 60.4336 129.527 59.9844 129.012 59.4062C128.504 58.8203 128.117 58.1367 127.852 57.3555C127.586 56.5664 127.453 55.7109 127.453 54.7891ZM130.828 54.543V54.7891C130.828 55.3203 130.875 55.8164 130.969 56.2773C131.062 56.7383 131.211 57.1445 131.414 57.4961C131.625 57.8398 131.898 58.1094 132.234 58.3047C132.57 58.5 132.98 58.5977 133.465 58.5977C133.934 58.5977 134.336 58.5 134.672 58.3047C135.008 58.1094 135.277 57.8398 135.48 57.4961C135.684 57.1445 135.832 56.7383 135.926 56.2773C136.027 55.8164 136.078 55.3203 136.078 54.7891V54.543C136.078 54.0273 136.027 53.543 135.926 53.0898C135.832 52.6289 135.68 52.2227 135.469 51.8711C135.266 51.5117 134.996 51.2305 134.66 51.0273C134.324 50.8242 133.918 50.7227 133.441 50.7227C132.965 50.7227 132.559 50.8242 132.223 51.0273C131.895 51.2305 131.625 51.5117 131.414 51.8711C131.211 52.2227 131.062 52.6289 130.969 53.0898C130.875 53.543 130.828 54.0273 130.828 54.543ZM146.777 58.5977C147.191 58.5977 147.559 58.5195 147.879 58.3633C148.199 58.1992 148.449 57.9727 148.629 57.6836C148.816 57.3867 148.914 57.0391 148.922 56.6406H152.098C152.09 57.5312 151.852 58.3242 151.383 59.0195C150.914 59.707 150.285 60.25 149.496 60.6484C148.707 61.0391 147.824 61.2344 146.848 61.2344C145.863 61.2344 145.004 61.0703 144.27 60.7422C143.543 60.4141 142.938 59.9609 142.453 59.3828C141.969 58.7969 141.605 58.1172 141.363 57.3438C141.121 56.5625 141 55.7266 141 54.8359V54.4961C141 53.5977 141.121 52.7617 141.363 51.9883C141.605 51.207 141.969 50.5273 142.453 49.9492C142.938 49.3633 143.543 48.9062 144.27 48.5781C144.996 48.25 145.848 48.0859 146.824 48.0859C147.863 48.0859 148.773 48.2852 149.555 48.6836C150.344 49.082 150.961 49.6523 151.406 50.3945C151.859 51.1289 152.09 52 152.098 53.0078H148.922C148.914 52.5859 148.824 52.2031 148.652 51.8594C148.488 51.5156 148.246 51.2422 147.926 51.0391C147.613 50.8281 147.227 50.7227 146.766 50.7227C146.273 50.7227 145.871 50.8281 145.559 51.0391C145.246 51.2422 145.004 51.5234 144.832 51.8828C144.66 52.2344 144.539 52.6367 144.469 53.0898C144.406 53.5352 144.375 54.0039 144.375 54.4961V54.8359C144.375 55.3281 144.406 55.8008 144.469 56.2539C144.531 56.707 144.648 57.1094 144.82 57.4609C145 57.8125 145.246 58.0898 145.559 58.293C145.871 58.4961 146.277 58.5977 146.777 58.5977ZM157.43 42.9883V61H154.055V42.9883H157.43ZM165.422 48.3203L159.914 54.6016L156.961 57.5898L155.73 55.1523L158.074 52.1758L161.367 48.3203H165.422ZM161.918 61L158.168 55.1406L160.5 53.1016L165.809 61H161.918ZM172.477 61.2344C171.492 61.2344 170.609 61.0781 169.828 60.7656C169.047 60.4453 168.383 60.0039 167.836 59.4414C167.297 58.8789 166.883 58.2266 166.594 57.4844C166.305 56.7344 166.16 55.9375 166.16 55.0938V54.625C166.16 53.6641 166.297 52.7852 166.57 51.9883C166.844 51.1914 167.234 50.5 167.742 49.9141C168.258 49.3281 168.883 48.8789 169.617 48.5664C170.352 48.2461 171.18 48.0859 172.102 48.0859C173 48.0859 173.797 48.2344 174.492 48.5312C175.188 48.8281 175.77 49.25 176.238 49.7969C176.715 50.3438 177.074 51 177.316 51.7656C177.559 52.5234 177.68 53.3672 177.68 54.2969V55.7031H167.602V53.4531H174.363V53.1953C174.363 52.7266 174.277 52.3086 174.105 51.9414C173.941 51.5664 173.691 51.2695 173.355 51.0508C173.02 50.832 172.59 50.7227 172.066 50.7227C171.621 50.7227 171.238 50.8203 170.918 51.0156C170.598 51.2109 170.336 51.4844 170.133 51.8359C169.938 52.1875 169.789 52.6016 169.688 53.0781C169.594 53.5469 169.547 54.0625 169.547 54.625V55.0938C169.547 55.6016 169.617 56.0703 169.758 56.5C169.906 56.9297 170.113 57.3008 170.379 57.6133C170.652 57.9258 170.98 58.168 171.363 58.3398C171.754 58.5117 172.195 58.5977 172.688 58.5977C173.297 58.5977 173.863 58.4805 174.387 58.2461C174.918 58.0039 175.375 57.6406 175.758 57.1562L177.398 58.9375C177.133 59.3203 176.77 59.6875 176.309 60.0391C175.855 60.3906 175.309 60.6797 174.668 60.9062C174.027 61.125 173.297 61.2344 172.477 61.2344ZM185.812 48.3203V50.7109H178.43V48.3203H185.812ZM180.258 45.1914H183.633V57.1797C183.633 57.5469 183.68 57.8281 183.773 58.0234C183.875 58.2188 184.023 58.3555 184.219 58.4336C184.414 58.5039 184.66 58.5391 184.957 58.5391C185.168 58.5391 185.355 58.5312 185.52 58.5156C185.691 58.4922 185.836 58.4688 185.953 58.4453L185.965 60.9297C185.676 61.0234 185.363 61.0977 185.027 61.1523C184.691 61.207 184.32 61.2344 183.914 61.2344C183.172 61.2344 182.523 61.1133 181.969 60.8711C181.422 60.6211 181 60.2227 180.703 59.6758C180.406 59.1289 180.258 58.4102 180.258 57.5195V45.1914ZM199.16 61H195.445L195.469 58.2578H199.16C200.082 58.2578 200.859 58.0508 201.492 57.6367C202.125 57.2148 202.602 56.6016 202.922 55.7969C203.25 54.9922 203.414 54.0195 203.414 52.8789V52.0469C203.414 51.1719 203.32 50.4023 203.133 49.7383C202.953 49.0742 202.684 48.5156 202.324 48.0625C201.965 47.6094 201.523 47.2695 201 47.043C200.477 46.8086 199.875 46.6914 199.195 46.6914H195.375V43.9375H199.195C200.336 43.9375 201.379 44.1328 202.324 44.5234C203.277 44.9062 204.102 45.457 204.797 46.1758C205.492 46.8945 206.027 47.7539 206.402 48.7539C206.785 49.7461 206.977 50.8516 206.977 52.0703V52.8789C206.977 54.0898 206.785 55.1953 206.402 56.1953C206.027 57.1953 205.492 58.0547 204.797 58.7734C204.109 59.4844 203.285 60.0352 202.324 60.4258C201.371 60.8086 200.316 61 199.16 61ZM197.438 43.9375V61H193.922V43.9375H197.438ZM216.434 55.7617V43.9375H219.938V55.7617C219.938 56.9023 219.688 57.8828 219.188 58.7031C218.688 59.5156 218.004 60.1406 217.137 60.5781C216.277 61.0156 215.309 61.2344 214.23 61.2344C213.113 61.2344 212.125 61.0469 211.266 60.6719C210.406 60.2969 209.73 59.7227 209.238 58.9492C208.746 58.168 208.5 57.1797 208.5 55.9844H212.027C212.027 56.6094 212.113 57.1055 212.285 57.4727C212.465 57.8398 212.719 58.1016 213.047 58.2578C213.375 58.4141 213.77 58.4922 214.23 58.4922C214.676 58.4922 215.062 58.3867 215.391 58.1758C215.719 57.9648 215.973 57.6562 216.152 57.25C216.34 56.8438 216.434 56.3477 216.434 55.7617ZM229.617 46.8555L224.977 61H221.238L227.578 43.9375H229.957L229.617 46.8555ZM233.473 61L228.82 46.8555L228.445 43.9375H230.848L237.223 61H233.473ZM233.262 54.6484V57.4023H224.25V54.6484H233.262ZM242.543 43.9375V61H239.039V43.9375H242.543Z" fill="#888888"/>
<path d="M109.219 107.422H100.734V101.07H109.219C110.375 101.07 111.312 100.875 112.031 100.484C112.75 100.094 113.273 99.5547 113.602 98.8672C113.945 98.1641 114.117 97.375 114.117 96.5C114.117 95.5625 113.945 94.6953 113.602 93.8984C113.273 93.1016 112.75 92.4609 112.031 91.9766C111.312 91.4766 110.375 91.2266 109.219 91.2266H103.828V119H95.6016V84.875H109.219C111.953 84.875 114.305 85.375 116.273 86.375C118.258 87.375 119.781 88.75 120.844 90.5C121.906 92.2344 122.438 94.2188 122.438 96.4531C122.438 98.6562 121.906 100.578 120.844 102.219C119.781 103.859 118.258 105.141 116.273 106.062C114.305 106.969 111.953 107.422 109.219 107.422ZM134.461 99.9219V119H126.562V93.6406H133.945L134.461 99.9219ZM141.961 93.4531L141.82 100.789C141.508 100.758 141.086 100.719 140.555 100.672C140.023 100.625 139.578 100.602 139.219 100.602C138.297 100.602 137.5 100.711 136.828 100.93C136.172 101.133 135.625 101.445 135.188 101.867C134.766 102.273 134.453 102.789 134.25 103.414C134.062 104.039 133.977 104.766 133.992 105.594L132.562 104.656C132.562 102.953 132.727 101.406 133.055 100.016C133.398 98.6094 133.883 97.3984 134.508 96.3828C135.133 95.3516 135.891 94.5625 136.781 94.0156C137.672 93.4531 138.672 93.1719 139.781 93.1719C140.172 93.1719 140.555 93.1953 140.93 93.2422C141.32 93.2891 141.664 93.3594 141.961 93.4531ZM142.852 106.578V106.086C142.852 104.227 143.117 102.516 143.648 100.953C144.18 99.375 144.961 98.0078 145.992 96.8516C147.023 95.6953 148.297 94.7969 149.812 94.1562C151.328 93.5 153.078 93.1719 155.062 93.1719C157.062 93.1719 158.82 93.5 160.336 94.1562C161.867 94.7969 163.148 95.6953 164.18 96.8516C165.211 98.0078 165.992 99.375 166.523 100.953C167.055 102.516 167.32 104.227 167.32 106.086V106.578C167.32 108.422 167.055 110.133 166.523 111.711C165.992 113.273 165.211 114.641 164.18 115.812C163.148 116.969 161.875 117.867 160.359 118.508C158.844 119.148 157.094 119.469 155.109 119.469C153.125 119.469 151.367 119.148 149.836 118.508C148.305 117.867 147.023 116.969 145.992 115.812C144.961 114.641 144.18 113.273 143.648 111.711C143.117 110.133 142.852 108.422 142.852 106.578ZM150.75 106.086V106.578C150.75 107.531 150.82 108.422 150.961 109.25C151.102 110.078 151.336 110.805 151.664 111.43C151.992 112.039 152.438 112.516 153 112.859C153.562 113.203 154.266 113.375 155.109 113.375C155.938 113.375 156.625 113.203 157.172 112.859C157.734 112.516 158.18 112.039 158.508 111.43C158.836 110.805 159.07 110.078 159.211 109.25C159.352 108.422 159.422 107.531 159.422 106.578V106.086C159.422 105.164 159.352 104.297 159.211 103.484C159.07 102.656 158.836 101.93 158.508 101.305C158.18 100.664 157.734 100.164 157.172 99.8047C156.609 99.4453 155.906 99.2656 155.062 99.2656C154.234 99.2656 153.539 99.4453 152.977 99.8047C152.43 100.164 151.992 100.664 151.664 101.305C151.336 101.93 151.102 102.656 150.961 103.484C150.82 104.297 150.75 105.164 150.75 106.086ZM184.195 93.6406V99.125H168.914V93.6406H184.195ZM172.125 87.3359H180.023V110.727C180.023 111.398 180.102 111.922 180.258 112.297C180.414 112.656 180.68 112.914 181.055 113.07C181.445 113.211 181.961 113.281 182.602 113.281C183.055 113.281 183.43 113.273 183.727 113.258C184.023 113.227 184.305 113.188 184.57 113.141V118.789C183.898 119.008 183.195 119.172 182.461 119.281C181.727 119.406 180.945 119.469 180.117 119.469C178.43 119.469 176.984 119.203 175.781 118.672C174.594 118.141 173.688 117.305 173.062 116.164C172.438 115.023 172.125 113.539 172.125 111.711V87.3359ZM185.648 106.578V106.086C185.648 104.227 185.914 102.516 186.445 100.953C186.977 99.375 187.758 98.0078 188.789 96.8516C189.82 95.6953 191.094 94.7969 192.609 94.1562C194.125 93.5 195.875 93.1719 197.859 93.1719C199.859 93.1719 201.617 93.5 203.133 94.1562C204.664 94.7969 205.945 95.6953 206.977 96.8516C208.008 98.0078 208.789 99.375 209.32 100.953C209.852 102.516 210.117 104.227 210.117 106.086V106.578C210.117 108.422 209.852 110.133 209.32 111.711C208.789 113.273 208.008 114.641 206.977 115.812C205.945 116.969 204.672 117.867 203.156 118.508C201.641 119.148 199.891 119.469 197.906 119.469C195.922 119.469 194.164 119.148 192.633 118.508C191.102 117.867 189.82 116.969 188.789 115.812C187.758 114.641 186.977 113.273 186.445 111.711C185.914 110.133 185.648 108.422 185.648 106.578ZM193.547 106.086V106.578C193.547 107.531 193.617 108.422 193.758 109.25C193.898 110.078 194.133 110.805 194.461 111.43C194.789 112.039 195.234 112.516 195.797 112.859C196.359 113.203 197.062 113.375 197.906 113.375C198.734 113.375 199.422 113.203 199.969 112.859C200.531 112.516 200.977 112.039 201.305 111.43C201.633 110.805 201.867 110.078 202.008 109.25C202.148 108.422 202.219 107.531 202.219 106.578V106.086C202.219 105.164 202.148 104.297 202.008 103.484C201.867 102.656 201.633 101.93 201.305 101.305C200.977 100.664 200.531 100.164 199.969 99.8047C199.406 99.4453 198.703 99.2656 197.859 99.2656C197.031 99.2656 196.336 99.4453 195.773 99.8047C195.227 100.164 194.789 100.664 194.461 101.305C194.133 101.93 193.898 102.656 193.758 103.484C193.617 104.297 193.547 105.164 193.547 106.086ZM226.992 93.6406V99.125H211.711V93.6406H226.992ZM214.922 87.3359H222.82V110.727C222.82 111.398 222.898 111.922 223.055 112.297C223.211 112.656 223.477 112.914 223.852 113.07C224.242 113.211 224.758 113.281 225.398 113.281C225.852 113.281 226.227 113.273 226.523 113.258C226.82 113.227 227.102 113.188 227.367 113.141V118.789C226.695 119.008 225.992 119.172 225.258 119.281C224.523 119.406 223.742 119.469 222.914 119.469C221.227 119.469 219.781 119.203 218.578 118.672C217.391 118.141 216.484 117.305 215.859 116.164C215.234 115.023 214.922 113.539 214.922 111.711V87.3359ZM237.914 116.023L244.477 93.6406H252.961L242.766 122.773C242.547 123.414 242.258 124.102 241.898 124.836C241.539 125.586 241.047 126.297 240.422 126.969C239.797 127.641 238.992 128.188 238.008 128.609C237.039 129.031 235.836 129.242 234.398 129.242C233.633 129.242 233.07 129.203 232.711 129.125C232.367 129.062 231.836 128.945 231.117 128.773V123.125C231.32 123.125 231.492 123.125 231.633 123.125C231.789 123.125 231.961 123.125 232.148 123.125C232.992 123.125 233.664 123.039 234.164 122.867C234.68 122.695 235.07 122.445 235.336 122.117C235.617 121.789 235.836 121.391 235.992 120.922L237.914 116.023ZM236.25 93.6406L241.242 111.383L242.109 119.75H236.812L227.789 93.6406H236.25ZM262.992 98.5156V128.75H255.094V93.6406H262.453L262.992 98.5156ZM278.555 106.016V106.508C278.555 108.352 278.344 110.062 277.922 111.641C277.5 113.219 276.875 114.594 276.047 115.766C275.219 116.938 274.188 117.852 272.953 118.508C271.734 119.148 270.32 119.469 268.711 119.469C267.195 119.469 265.891 119.133 264.797 118.461C263.703 117.789 262.789 116.859 262.055 115.672C261.32 114.484 260.727 113.125 260.273 111.594C259.82 110.062 259.461 108.445 259.195 106.742V106.109C259.461 104.281 259.82 102.586 260.273 101.023C260.727 99.4453 261.32 98.0703 262.055 96.8984C262.789 95.7266 263.695 94.8125 264.773 94.1562C265.867 93.5 267.172 93.1719 268.688 93.1719C270.297 93.1719 271.711 93.4766 272.93 94.0859C274.164 94.6953 275.195 95.5703 276.023 96.7109C276.867 97.8359 277.5 99.1875 277.922 100.766C278.344 102.344 278.555 104.094 278.555 106.016ZM270.656 106.508V106.016C270.656 105.031 270.586 104.133 270.445 103.32C270.305 102.492 270.078 101.773 269.766 101.164C269.469 100.555 269.07 100.086 268.57 99.7578C268.07 99.4297 267.453 99.2656 266.719 99.2656C265.875 99.2656 265.164 99.3984 264.586 99.6641C264.023 99.9141 263.57 100.305 263.227 100.836C262.898 101.352 262.664 102 262.523 102.781C262.398 103.547 262.344 104.445 262.359 105.477V107.398C262.328 108.586 262.445 109.633 262.711 110.539C262.977 111.43 263.438 112.125 264.094 112.625C264.75 113.125 265.641 113.375 266.766 113.375C267.516 113.375 268.141 113.203 268.641 112.859C269.141 112.5 269.539 112.008 269.836 111.383C270.133 110.742 270.344 110.008 270.469 109.18C270.594 108.352 270.656 107.461 270.656 106.508ZM290.414 93.6406V119H282.492V93.6406H290.414ZM282.023 87.1016C282.023 85.9766 282.43 85.0547 283.242 84.3359C284.055 83.6172 285.109 83.2578 286.406 83.2578C287.703 83.2578 288.758 83.6172 289.57 84.3359C290.383 85.0547 290.789 85.9766 290.789 87.1016C290.789 88.2266 290.383 89.1484 289.57 89.8672C288.758 90.5859 287.703 90.9453 286.406 90.9453C285.109 90.9453 284.055 90.5859 283.242 89.8672C282.43 89.1484 282.023 88.2266 282.023 87.1016ZM303.047 99.0547V119H295.148V93.6406H302.555L303.047 99.0547ZM302.109 105.453L300.258 105.5C300.258 103.562 300.492 101.836 300.961 100.32C301.43 98.7891 302.094 97.4922 302.953 96.4297C303.812 95.3672 304.836 94.5625 306.023 94.0156C307.227 93.4531 308.562 93.1719 310.031 93.1719C311.203 93.1719 312.273 93.3438 313.242 93.6875C314.227 94.0312 315.07 94.5859 315.773 95.3516C316.492 96.1172 317.039 97.1328 317.414 98.3984C317.805 99.6484 318 101.195 318 103.039V119H310.055V103.016C310.055 102 309.914 101.227 309.633 100.695C309.352 100.148 308.945 99.7734 308.414 99.5703C307.883 99.3672 307.234 99.2656 306.469 99.2656C305.656 99.2656 304.969 99.4219 304.406 99.7344C303.844 100.047 303.391 100.484 303.047 101.047C302.719 101.594 302.477 102.242 302.32 102.992C302.18 103.742 302.109 104.562 302.109 105.453ZM338.32 93.6406H345.492V118.016C345.492 120.359 344.953 122.344 343.875 123.969C342.797 125.609 341.289 126.852 339.352 127.695C337.43 128.555 335.18 128.984 332.602 128.984C331.461 128.984 330.297 128.836 329.109 128.539C327.922 128.258 326.812 127.836 325.781 127.273C324.75 126.711 323.883 126.016 323.18 125.188L326.484 120.547C327.125 121.266 327.93 121.875 328.898 122.375C329.867 122.891 331.008 123.148 332.32 123.148C333.461 123.148 334.414 122.945 335.18 122.539C335.961 122.133 336.555 121.539 336.961 120.758C337.367 119.992 337.57 119.062 337.57 117.969V99.6406L338.32 93.6406ZM321.469 106.625V106.133C321.469 104.211 321.703 102.461 322.172 100.883C322.656 99.2891 323.344 97.9219 324.234 96.7812C325.141 95.625 326.234 94.7344 327.516 94.1094C328.797 93.4844 330.242 93.1719 331.852 93.1719C333.586 93.1719 335.008 93.5078 336.117 94.1797C337.242 94.8359 338.141 95.7578 338.812 96.9453C339.5 98.1328 340.031 99.5234 340.406 101.117C340.797 102.695 341.125 104.398 341.391 106.227V106.812C341.125 108.531 340.758 110.156 340.289 111.688C339.836 113.203 339.242 114.547 338.508 115.719C337.773 116.891 336.852 117.812 335.742 118.484C334.648 119.141 333.336 119.469 331.805 119.469C330.211 119.469 328.773 119.148 327.492 118.508C326.227 117.867 325.141 116.969 324.234 115.812C323.344 114.656 322.656 113.297 322.172 111.734C321.703 110.172 321.469 108.469 321.469 106.625ZM329.367 106.133V106.625C329.367 107.578 329.453 108.461 329.625 109.273C329.812 110.086 330.094 110.805 330.469 111.43C330.844 112.039 331.305 112.516 331.852 112.859C332.414 113.203 333.07 113.375 333.82 113.375C334.961 113.375 335.883 113.133 336.586 112.648C337.289 112.164 337.797 111.477 338.109 110.586C338.422 109.695 338.555 108.648 338.508 107.445V105.594C338.539 104.562 338.469 103.656 338.297 102.875C338.125 102.078 337.852 101.414 337.477 100.883C337.117 100.352 336.633 99.9531 336.023 99.6875C335.43 99.4062 334.711 99.2656 333.867 99.2656C333.133 99.2656 332.484 99.4375 331.922 99.7812C331.359 100.125 330.891 100.609 330.516 101.234C330.141 101.844 329.852 102.57 329.648 103.414C329.461 104.242 329.367 105.148 329.367 106.133Z" fill="black"/>
<path d="M1134 0H1348C1356.28 0 1363 6.71573 1363 15V148C1363 156.284 1356.28 163 1348 163H1134V0Z" fill="#FC6422"/>
<path fill-rule="evenodd" clip-rule="evenodd" d="M1202.75 46.5018C1202.75 45.3973 1203.65 44.5018 1204.75 44.5018H1292.25C1293.35 44.5018 1294.25 45.3973 1294.25 46.5018V116.498C1294.25 117.603 1293.35 118.498 1292.25 118.498H1204.75C1203.65 118.498 1202.75 117.603 1202.75 116.498V46.5018ZM1206.75 48.5018V52.9963H1290.25V48.5018H1206.75ZM1290.25 56.9963H1235.19V114.498H1290.25V56.9963ZM1231.19 114.498V56.9963H1206.75V114.498H1231.19Z" fill="white"/>
<path fill-rule="evenodd" clip-rule="evenodd" d="M1209.72 62.3022C1209.72 61.1976 1210.62 60.3022 1211.72 60.3022H1225.72C1226.83 60.3022 1227.72 61.1976 1227.72 62.3022V81.6974C1227.72 82.802 1226.83 83.6974 1225.72 83.6974H1211.72C1210.62 83.6974 1209.72 82.802 1209.72 81.6974V62.3022ZM1213.72 64.3022V79.6974H1223.72V64.3022H1213.72ZM1239.33 63.1982C1239.33 62.0936 1240.22 61.1982 1241.33 61.1982H1284.25C1285.36 61.1982 1286.25 62.0936 1286.25 63.1982V109.407C1286.25 110.511 1285.36 111.407 1284.25 111.407H1241.33C1240.22 111.407 1239.33 110.511 1239.33 109.407V63.1982ZM1243.33 65.1982V107.407H1282.25V65.1982H1243.33ZM1209.56 93.4381C1209.56 92.3336 1210.46 91.4381 1211.56 91.4381H1220.48C1221.59 91.4381 1222.48 92.3336 1222.48 93.4381C1222.48 94.5427 1221.59 95.4381 1220.48 95.4381H1211.56C1210.46 95.4381 1209.56 94.5427 1209.56 93.4381ZM1209.56 100.438C1209.56 99.3335 1210.46 98.4381 1211.56 98.4381H1226.1C1227.21 98.4381 1228.1 99.3335 1228.1 100.438C1228.1 101.543 1227.21 102.438 1226.1 102.438H1211.56C1210.46 102.438 1209.56 101.543 1209.56 100.438ZM1209.56 107.438C1209.56 106.334 1210.46 105.438 1211.56 105.438H1220.48C1221.59 105.438 1222.48 106.334 1222.48 107.438C1222.48 108.543 1221.59 109.438 1220.48 109.438H1211.56C1210.46 109.438 1209.56 108.543 1209.56 107.438Z" fill="white"/>
</svg>
