<svg width="1363" height="163" viewBox="0 0 1363 163" fill="none" xmlns="http://www.w3.org/2000/svg">
<path d="M0 15C0 6.71573 6.71573 0 15 0H37V163H15C6.71573 163 0 156.284 0 148V15Z" fill="#FC6422"/>
<rect width="1097" height="163" transform="translate(37)" fill="#F0F0F0"/>
<path d="M101.906 53.9219L94.3945 51.2383V48.0859L104.602 52.375V54.6367L101.906 53.9219ZM94.3945 56.1719L101.918 53.4297L104.602 52.7852V55.0352L94.3945 59.3242V56.1719ZM119.543 54.918H115.195V52.1758H119.543C120.215 52.1758 120.762 52.0664 121.184 51.8477C121.605 51.6211 121.914 51.3086 122.109 50.9102C122.305 50.5117 122.402 50.0625 122.402 49.5625C122.402 49.0547 122.305 48.582 122.109 48.1445C121.914 47.707 121.605 47.3555 121.184 47.0898C120.762 46.8242 120.215 46.6914 119.543 46.6914H116.414V61H112.898V43.9375H119.543C120.879 43.9375 122.023 44.1797 122.977 44.6641C123.938 45.1406 124.672 45.8008 125.18 46.6445C125.688 47.4883 125.941 48.4531 125.941 49.5391C125.941 50.6406 125.688 51.5938 125.18 52.3984C124.672 53.2031 123.938 53.8242 122.977 54.2617C122.023 54.6992 120.879 54.918 119.543 54.918ZM127.453 54.7891V54.543C127.453 53.6133 127.586 52.7578 127.852 51.9766C128.117 51.1875 128.504 50.5039 129.012 49.9258C129.52 49.3477 130.145 48.8984 130.887 48.5781C131.629 48.25 132.48 48.0859 133.441 48.0859C134.402 48.0859 135.258 48.25 136.008 48.5781C136.758 48.8984 137.387 49.3477 137.895 49.9258C138.41 50.5039 138.801 51.1875 139.066 51.9766C139.332 52.7578 139.465 53.6133 139.465 54.543V54.7891C139.465 55.7109 139.332 56.5664 139.066 57.3555C138.801 58.1367 138.41 58.8203 137.895 59.4062C137.387 59.9844 136.762 60.4336 136.02 60.7539C135.277 61.0742 134.426 61.2344 133.465 61.2344C132.504 61.2344 131.648 61.0742 130.898 60.7539C130.156 60.4336 129.527 59.9844 129.012 59.4062C128.504 58.8203 128.117 58.1367 127.852 57.3555C127.586 56.5664 127.453 55.7109 127.453 54.7891ZM130.828 54.543V54.7891C130.828 55.3203 130.875 55.8164 130.969 56.2773C131.062 56.7383 131.211 57.1445 131.414 57.4961C131.625 57.8398 131.898 58.1094 132.234 58.3047C132.57 58.5 132.98 58.5977 133.465 58.5977C133.934 58.5977 134.336 58.5 134.672 58.3047C135.008 58.1094 135.277 57.8398 135.48 57.4961C135.684 57.1445 135.832 56.7383 135.926 56.2773C136.027 55.8164 136.078 55.3203 136.078 54.7891V54.543C136.078 54.0273 136.027 53.543 135.926 53.0898C135.832 52.6289 135.68 52.2227 135.469 51.8711C135.266 51.5117 134.996 51.2305 134.66 51.0273C134.324 50.8242 133.918 50.7227 133.441 50.7227C132.965 50.7227 132.559 50.8242 132.223 51.0273C131.895 51.2305 131.625 51.5117 131.414 51.8711C131.211 52.2227 131.062 52.6289 130.969 53.0898C130.875 53.543 130.828 54.0273 130.828 54.543ZM146.777 58.5977C147.191 58.5977 147.559 58.5195 147.879 58.3633C148.199 58.1992 148.449 57.9727 148.629 57.6836C148.816 57.3867 148.914 57.0391 148.922 56.6406H152.098C152.09 57.5312 151.852 58.3242 151.383 59.0195C150.914 59.707 150.285 60.25 149.496 60.6484C148.707 61.0391 147.824 61.2344 146.848 61.2344C145.863 61.2344 145.004 61.0703 144.27 60.7422C143.543 60.4141 142.938 59.9609 142.453 59.3828C141.969 58.7969 141.605 58.1172 141.363 57.3438C141.121 56.5625 141 55.7266 141 54.8359V54.4961C141 53.5977 141.121 52.7617 141.363 51.9883C141.605 51.207 141.969 50.5273 142.453 49.9492C142.938 49.3633 143.543 48.9062 144.27 48.5781C144.996 48.25 145.848 48.0859 146.824 48.0859C147.863 48.0859 148.773 48.2852 149.555 48.6836C150.344 49.082 150.961 49.6523 151.406 50.3945C151.859 51.1289 152.09 52 152.098 53.0078H148.922C148.914 52.5859 148.824 52.2031 148.652 51.8594C148.488 51.5156 148.246 51.2422 147.926 51.0391C147.613 50.8281 147.227 50.7227 146.766 50.7227C146.273 50.7227 145.871 50.8281 145.559 51.0391C145.246 51.2422 145.004 51.5234 144.832 51.8828C144.66 52.2344 144.539 52.6367 144.469 53.0898C144.406 53.5352 144.375 54.0039 144.375 54.4961V54.8359C144.375 55.3281 144.406 55.8008 144.469 56.2539C144.531 56.707 144.648 57.1094 144.82 57.4609C145 57.8125 145.246 58.0898 145.559 58.293C145.871 58.4961 146.277 58.5977 146.777 58.5977ZM157.43 42.9883V61H154.055V42.9883H157.43ZM165.422 48.3203L159.914 54.6016L156.961 57.5898L155.73 55.1523L158.074 52.1758L161.367 48.3203H165.422ZM161.918 61L158.168 55.1406L160.5 53.1016L165.809 61H161.918ZM172.477 61.2344C171.492 61.2344 170.609 61.0781 169.828 60.7656C169.047 60.4453 168.383 60.0039 167.836 59.4414C167.297 58.8789 166.883 58.2266 166.594 57.4844C166.305 56.7344 166.16 55.9375 166.16 55.0938V54.625C166.16 53.6641 166.297 52.7852 166.57 51.9883C166.844 51.1914 167.234 50.5 167.742 49.9141C168.258 49.3281 168.883 48.8789 169.617 48.5664C170.352 48.2461 171.18 48.0859 172.102 48.0859C173 48.0859 173.797 48.2344 174.492 48.5312C175.188 48.8281 175.77 49.25 176.238 49.7969C176.715 50.3438 177.074 51 177.316 51.7656C177.559 52.5234 177.68 53.3672 177.68 54.2969V55.7031H167.602V53.4531H174.363V53.1953C174.363 52.7266 174.277 52.3086 174.105 51.9414C173.941 51.5664 173.691 51.2695 173.355 51.0508C173.02 50.832 172.59 50.7227 172.066 50.7227C171.621 50.7227 171.238 50.8203 170.918 51.0156C170.598 51.2109 170.336 51.4844 170.133 51.8359C169.938 52.1875 169.789 52.6016 169.688 53.0781C169.594 53.5469 169.547 54.0625 169.547 54.625V55.0938C169.547 55.6016 169.617 56.0703 169.758 56.5C169.906 56.9297 170.113 57.3008 170.379 57.6133C170.652 57.9258 170.98 58.168 171.363 58.3398C171.754 58.5117 172.195 58.5977 172.688 58.5977C173.297 58.5977 173.863 58.4805 174.387 58.2461C174.918 58.0039 175.375 57.6406 175.758 57.1562L177.398 58.9375C177.133 59.3203 176.77 59.6875 176.309 60.0391C175.855 60.3906 175.309 60.6797 174.668 60.9062C174.027 61.125 173.297 61.2344 172.477 61.2344ZM185.812 48.3203V50.7109H178.43V48.3203H185.812ZM180.258 45.1914H183.633V57.1797C183.633 57.5469 183.68 57.8281 183.773 58.0234C183.875 58.2188 184.023 58.3555 184.219 58.4336C184.414 58.5039 184.66 58.5391 184.957 58.5391C185.168 58.5391 185.355 58.5312 185.52 58.5156C185.691 58.4922 185.836 58.4688 185.953 58.4453L185.965 60.9297C185.676 61.0234 185.363 61.0977 185.027 61.1523C184.691 61.207 184.32 61.2344 183.914 61.2344C183.172 61.2344 182.523 61.1133 181.969 60.8711C181.422 60.6211 181 60.2227 180.703 59.6758C180.406 59.1289 180.258 58.4102 180.258 57.5195V45.1914ZM199.16 61H195.445L195.469 58.2578H199.16C200.082 58.2578 200.859 58.0508 201.492 57.6367C202.125 57.2148 202.602 56.6016 202.922 55.7969C203.25 54.9922 203.414 54.0195 203.414 52.8789V52.0469C203.414 51.1719 203.32 50.4023 203.133 49.7383C202.953 49.0742 202.684 48.5156 202.324 48.0625C201.965 47.6094 201.523 47.2695 201 47.043C200.477 46.8086 199.875 46.6914 199.195 46.6914H195.375V43.9375H199.195C200.336 43.9375 201.379 44.1328 202.324 44.5234C203.277 44.9062 204.102 45.457 204.797 46.1758C205.492 46.8945 206.027 47.7539 206.402 48.7539C206.785 49.7461 206.977 50.8516 206.977 52.0703V52.8789C206.977 54.0898 206.785 55.1953 206.402 56.1953C206.027 57.1953 205.492 58.0547 204.797 58.7734C204.109 59.4844 203.285 60.0352 202.324 60.4258C201.371 60.8086 200.316 61 199.16 61ZM197.438 43.9375V61H193.922V43.9375H197.438ZM216.434 55.7617V43.9375H219.938V55.7617C219.938 56.9023 219.688 57.8828 219.188 58.7031C218.688 59.5156 218.004 60.1406 217.137 60.5781C216.277 61.0156 215.309 61.2344 214.23 61.2344C213.113 61.2344 212.125 61.0469 211.266 60.6719C210.406 60.2969 209.73 59.7227 209.238 58.9492C208.746 58.168 208.5 57.1797 208.5 55.9844H212.027C212.027 56.6094 212.113 57.1055 212.285 57.4727C212.465 57.8398 212.719 58.1016 213.047 58.2578C213.375 58.4141 213.77 58.4922 214.23 58.4922C214.676 58.4922 215.062 58.3867 215.391 58.1758C215.719 57.9648 215.973 57.6562 216.152 57.25C216.34 56.8438 216.434 56.3477 216.434 55.7617ZM229.617 46.8555L224.977 61H221.238L227.578 43.9375H229.957L229.617 46.8555ZM233.473 61L228.82 46.8555L228.445 43.9375H230.848L237.223 61H233.473ZM233.262 54.6484V57.4023H224.25V54.6484H233.262ZM242.543 43.9375V61H239.039V43.9375H242.543Z" fill="#888888"/>
<path d="M118.594 98.4219V104.75H101.086V98.4219H118.594ZM103.828 84.875V119H95.6016V84.875H103.828ZM124.125 84.875V119H115.922V84.875H124.125ZM127.992 106.578V106.086C127.992 104.227 128.258 102.516 128.789 100.953C129.32 99.375 130.102 98.0078 131.133 96.8516C132.164 95.6953 133.438 94.7969 134.953 94.1562C136.469 93.5 138.219 93.1719 140.203 93.1719C142.203 93.1719 143.961 93.5 145.477 94.1562C147.008 94.7969 148.289 95.6953 149.32 96.8516C150.352 98.0078 151.133 99.375 151.664 100.953C152.195 102.516 152.461 104.227 152.461 106.086V106.578C152.461 108.422 152.195 110.133 151.664 111.711C151.133 113.273 150.352 114.641 149.32 115.812C148.289 116.969 147.016 117.867 145.5 118.508C143.984 119.148 142.234 119.469 140.25 119.469C138.266 119.469 136.508 119.148 134.977 118.508C133.445 117.867 132.164 116.969 131.133 115.812C130.102 114.641 129.32 113.273 128.789 111.711C128.258 110.133 127.992 108.422 127.992 106.578ZM135.891 106.086V106.578C135.891 107.531 135.961 108.422 136.102 109.25C136.242 110.078 136.477 110.805 136.805 111.43C137.133 112.039 137.578 112.516 138.141 112.859C138.703 113.203 139.406 113.375 140.25 113.375C141.078 113.375 141.766 113.203 142.312 112.859C142.875 112.516 143.32 112.039 143.648 111.43C143.977 110.805 144.211 110.078 144.352 109.25C144.492 108.422 144.562 107.531 144.562 106.578V106.086C144.562 105.164 144.492 104.297 144.352 103.484C144.211 102.656 143.977 101.93 143.648 101.305C143.32 100.664 142.875 100.164 142.312 99.8047C141.75 99.4453 141.047 99.2656 140.203 99.2656C139.375 99.2656 138.68 99.4453 138.117 99.8047C137.57 100.164 137.133 100.664 136.805 101.305C136.477 101.93 136.242 102.656 136.102 103.484C135.961 104.297 135.891 105.164 135.891 106.086ZM163.688 111.453L168.375 93.6406H173.32L171.562 102.57L166.922 119H162.961L163.688 111.453ZM161.836 93.6406L164.742 111.312L165.07 119H160.266L154.266 93.6406H161.836ZM177.492 110.938L180.422 93.6406H187.992L182.039 119H177.234L177.492 110.938ZM173.883 93.6406L178.617 111.406L179.344 119H175.336L170.789 102.617L169.102 93.6406H173.883ZM218.297 84.875V119H210.07V84.875H218.297ZM228.562 84.875V91.2266H200.039V84.875H228.562ZM225.773 106.578V106.086C225.773 104.227 226.039 102.516 226.57 100.953C227.102 99.375 227.883 98.0078 228.914 96.8516C229.945 95.6953 231.219 94.7969 232.734 94.1562C234.25 93.5 236 93.1719 237.984 93.1719C239.984 93.1719 241.742 93.5 243.258 94.1562C244.789 94.7969 246.07 95.6953 247.102 96.8516C248.133 98.0078 248.914 99.375 249.445 100.953C249.977 102.516 250.242 104.227 250.242 106.086V106.578C250.242 108.422 249.977 110.133 249.445 111.711C248.914 113.273 248.133 114.641 247.102 115.812C246.07 116.969 244.797 117.867 243.281 118.508C241.766 119.148 240.016 119.469 238.031 119.469C236.047 119.469 234.289 119.148 232.758 118.508C231.227 117.867 229.945 116.969 228.914 115.812C227.883 114.641 227.102 113.273 226.57 111.711C226.039 110.133 225.773 108.422 225.773 106.578ZM233.672 106.086V106.578C233.672 107.531 233.742 108.422 233.883 109.25C234.023 110.078 234.258 110.805 234.586 111.43C234.914 112.039 235.359 112.516 235.922 112.859C236.484 113.203 237.188 113.375 238.031 113.375C238.859 113.375 239.547 113.203 240.094 112.859C240.656 112.516 241.102 112.039 241.43 111.43C241.758 110.805 241.992 110.078 242.133 109.25C242.273 108.422 242.344 107.531 242.344 106.578V106.086C242.344 105.164 242.273 104.297 242.133 103.484C241.992 102.656 241.758 101.93 241.43 101.305C241.102 100.664 240.656 100.164 240.094 99.8047C239.531 99.4453 238.828 99.2656 237.984 99.2656C237.156 99.2656 236.461 99.4453 235.898 99.8047C235.352 100.164 234.914 100.664 234.586 101.305C234.258 101.93 234.023 102.656 233.883 103.484C233.742 104.297 233.672 105.164 233.672 106.086ZM266.086 84.875H279.516C282.141 84.875 284.422 85.2656 286.359 86.0469C288.297 86.8281 289.789 87.9844 290.836 89.5156C291.898 91.0469 292.43 92.9375 292.43 95.1875C292.43 97.1406 292.125 98.7734 291.516 100.086C290.906 101.398 290.055 102.484 288.961 103.344C287.883 104.188 286.625 104.883 285.188 105.43L282.492 106.953H271.219L271.172 100.602H279.516C280.562 100.602 281.43 100.414 282.117 100.039C282.805 99.6641 283.32 99.1328 283.664 98.4453C284.023 97.7422 284.203 96.9062 284.203 95.9375C284.203 94.9531 284.023 94.1094 283.664 93.4062C283.305 92.7031 282.773 92.1641 282.07 91.7891C281.383 91.4141 280.531 91.2266 279.516 91.2266H274.312V119H266.086V84.875ZM284.766 119L277.219 103.906L285.938 103.859L293.578 118.648V119H284.766ZM311.836 112.836V93.6406H319.758V119H312.352L311.836 112.836ZM312.586 107.68L314.648 107.633C314.648 109.336 314.445 110.914 314.039 112.367C313.633 113.805 313.031 115.055 312.234 116.117C311.453 117.18 310.484 118.008 309.328 118.602C308.188 119.18 306.867 119.469 305.367 119.469C304.117 119.469 302.969 119.297 301.922 118.953C300.891 118.594 300 118.039 299.25 117.289C298.5 116.523 297.914 115.547 297.492 114.359C297.086 113.156 296.883 111.719 296.883 110.047V93.6406H304.781V110.094C304.781 110.656 304.852 111.141 304.992 111.547C305.133 111.953 305.336 112.297 305.602 112.578C305.867 112.844 306.195 113.047 306.586 113.188C306.992 113.312 307.453 113.375 307.969 113.375C309.156 113.375 310.086 113.125 310.758 112.625C311.43 112.125 311.898 111.445 312.164 110.586C312.445 109.727 312.586 108.758 312.586 107.68ZM331.875 99.0547V119H323.977V93.6406H331.383L331.875 99.0547ZM330.938 105.453L329.086 105.5C329.086 103.562 329.32 101.836 329.789 100.32C330.258 98.7891 330.922 97.4922 331.781 96.4297C332.641 95.3672 333.664 94.5625 334.852 94.0156C336.055 93.4531 337.391 93.1719 338.859 93.1719C340.031 93.1719 341.102 93.3438 342.07 93.6875C343.055 94.0312 343.898 94.5859 344.602 95.3516C345.32 96.1172 345.867 97.1328 346.242 98.3984C346.633 99.6484 346.828 101.195 346.828 103.039V119H338.883V103.016C338.883 102 338.742 101.227 338.461 100.695C338.18 100.148 337.773 99.7734 337.242 99.5703C336.711 99.3672 336.062 99.2656 335.297 99.2656C334.484 99.2656 333.797 99.4219 333.234 99.7344C332.672 100.047 332.219 100.484 331.875 101.047C331.547 101.594 331.305 102.242 331.148 102.992C331.008 103.742 330.938 104.562 330.938 105.453ZM363.773 108.195H357.047C357.047 106.82 357.141 105.609 357.328 104.562C357.531 103.5 357.875 102.547 358.359 101.703C358.844 100.859 359.5 100.078 360.328 99.3594C361.062 98.75 361.695 98.1641 362.227 97.6016C362.758 97.0391 363.164 96.4688 363.445 95.8906C363.727 95.3125 363.867 94.6953 363.867 94.0391C363.867 93.2266 363.75 92.5625 363.516 92.0469C363.297 91.5312 362.961 91.1484 362.508 90.8984C362.07 90.6328 361.516 90.5 360.844 90.5C360.297 90.5 359.781 90.6328 359.297 90.8984C358.828 91.1641 358.445 91.5781 358.148 92.1406C357.852 92.6875 357.688 93.4141 357.656 94.3203H349.711C349.758 91.9922 350.273 90.1016 351.258 88.6484C352.258 87.1797 353.586 86.1094 355.242 85.4375C356.914 84.75 358.781 84.4062 360.844 84.4062C363.125 84.4062 365.086 84.7578 366.727 85.4609C368.367 86.1641 369.625 87.2109 370.5 88.6016C371.375 89.9766 371.812 91.6719 371.812 93.6875C371.812 95.0312 371.555 96.2031 371.039 97.2031C370.539 98.1875 369.859 99.1094 369 99.9688C368.156 100.812 367.211 101.719 366.164 102.688C365.258 103.484 364.641 104.297 364.312 105.125C363.984 105.938 363.805 106.961 363.773 108.195ZM356.086 115.32C356.086 114.195 356.492 113.258 357.305 112.508C358.117 111.742 359.172 111.359 360.469 111.359C361.766 111.359 362.82 111.742 363.633 112.508C364.445 113.258 364.852 114.195 364.852 115.32C364.852 116.445 364.445 117.391 363.633 118.156C362.82 118.906 361.766 119.281 360.469 119.281C359.172 119.281 358.117 118.906 357.305 118.156C356.492 117.391 356.086 116.445 356.086 115.32Z" fill="black"/>
<path d="M1134 0H1348C1356.28 0 1363 6.71573 1363 15V148C1363 156.284 1356.28 163 1348 163H1134V0Z" fill="#FC6422"/>
<path d="M1260.62 78.8078C1263.81 78.8078 1266.93 79.7552 1269.59 81.5302C1272.25 83.3052 1274.32 85.8281 1275.54 88.7798C1276.76 91.7315 1277.08 94.9795 1276.46 98.1131C1275.84 101.247 1274.3 104.125 1272.04 106.384C1269.78 108.643 1266.9 110.182 1263.77 110.805C1260.63 111.428 1257.39 111.108 1254.43 109.886C1251.48 108.663 1248.96 106.593 1247.18 103.936C1245.41 101.28 1244.46 98.1565 1244.46 94.9616C1244.46 90.6774 1246.16 86.5686 1249.19 83.5392C1252.22 80.5097 1256.33 78.8078 1260.62 78.8078V78.8078ZM1260.62 73.4232C1256.36 73.4232 1252.19 74.6864 1248.65 77.0531C1245.11 79.4198 1242.35 82.7836 1240.72 86.7192C1239.09 90.6549 1238.66 94.9855 1239.49 99.1636C1240.32 103.342 1242.37 107.179 1245.39 110.192C1248.4 113.204 1252.24 115.255 1256.41 116.086C1260.59 116.917 1264.92 116.491 1268.86 114.861C1272.79 113.23 1276.16 110.47 1278.52 106.928C1280.89 103.386 1282.15 99.2215 1282.15 94.9616C1282.15 89.2493 1279.88 83.7709 1275.85 79.7317C1271.81 75.6924 1266.33 73.4232 1260.62 73.4232Z" fill="white"/>
<path d="M1274.08 46.4999H1220.23C1218.8 46.4999 1217.43 47.0672 1216.42 48.0771C1215.41 49.0869 1214.85 50.4565 1214.85 51.8845V105.731C1214.85 107.159 1215.41 108.528 1216.42 109.538C1217.43 110.548 1218.8 111.115 1220.23 111.115H1231V105.731H1220.23V68.0383H1279.46V51.8845C1279.46 50.4565 1278.89 49.0869 1277.88 48.0771C1276.87 47.0672 1275.5 46.4999 1274.08 46.4999V46.4999ZM1220.23 62.6537V51.8845H1274.08V62.6537H1220.23Z" fill="white"/>
<path d="M1255.23 86.8848V103.039L1268.69 94.9617L1255.23 86.8848Z" fill="white"/>
</svg>
