<svg width="300" height="224" viewBox="0 0 300 224" fill="none" xmlns="http://www.w3.org/2000/svg">
<path d="M294.909 19.0043H281.334V5.09061C281.334 2.27929 279.056 0 276.244 0H255.543C252.731 0 250.452 2.27929 250.452 5.09061V19.0048H239.932V13.2357C239.932 10.4244 237.653 8.1451 234.841 8.1451C232.029 8.1451 229.75 10.4244 229.75 13.2357V19.0048H70.2485V13.2357C70.2485 10.4244 67.9698 8.1451 65.1579 8.1451C62.346 8.1451 60.0673 10.4244 60.0673 13.2357V19.0048H49.5474V13.2357C49.5474 10.4244 47.2687 8.1451 44.4567 8.1451C41.6448 8.1451 39.3661 10.4244 39.3661 13.2357V19.0048H28.8462V13.2357C28.8462 10.4244 26.5675 8.1451 23.7556 8.1451C20.9437 8.1451 18.665 10.4244 18.665 13.2357V19.0048H5.09061C2.27871 19.0048 0 21.2841 0 24.0955V218.892C0 221.703 2.27871 223.982 5.09061 223.982H86.1754C87.8014 223.982 89.3289 223.206 90.2881 221.892L104.278 202.721H195.723L209.712 221.892C210.671 223.205 212.199 223.982 213.825 223.982H294.909C297.721 223.982 300 221.703 300 218.892V24.0949C299.999 21.2836 297.721 19.0043 294.909 19.0043ZM260.633 10.1806H271.154V19.0043H260.633V10.1806ZM108.258 192.54H101.69C100.064 192.54 98.5369 193.316 97.5777 194.63L83.5879 213.801H10.1812V29.1855H108.258V192.54ZM181.561 192.54H118.439V29.1855H181.561L181.561 192.54ZM289.818 213.801H216.411L202.422 194.63C201.463 193.317 199.936 192.54 198.309 192.54H191.742V29.1855H289.819L289.818 213.801Z" fill="#FC6422"/>
<path d="M59.0492 105.882C36.0331 105.882 17.3071 124.607 17.3071 147.624C17.3071 170.64 36.0325 189.366 59.0492 189.366C82.066 189.366 100.791 170.641 100.791 147.624C100.791 124.607 82.066 105.882 59.0492 105.882ZM59.0492 179.185C41.6458 179.185 27.4884 165.026 27.4884 147.624C27.4884 130.221 41.6458 116.063 59.0492 116.063C76.4527 116.063 90.6101 130.222 90.6101 147.624C90.6107 165.026 76.4527 179.185 59.0492 179.185Z" fill="#1E1E1E"/>
<path d="M59.0495 129.638C49.1319 129.638 41.063 137.707 41.063 147.625C41.063 157.542 49.1319 165.611 59.0495 165.611C68.967 165.611 77.036 157.542 77.036 147.625C77.036 137.707 68.967 129.638 59.0495 129.638ZM59.0495 155.43C54.7458 155.43 51.2442 151.928 51.2442 147.625C51.2442 143.321 54.7458 139.819 59.0495 139.819C63.3532 139.819 66.8547 143.321 66.8547 147.625C66.8553 151.928 63.3538 155.43 59.0495 155.43Z" fill="#1E1E1E"/>
<path d="M240.95 105.882C217.933 105.882 199.208 124.607 199.208 147.624C199.208 170.64 217.933 189.366 240.95 189.366C263.967 189.366 282.692 170.641 282.692 147.624C282.692 124.607 263.966 105.882 240.95 105.882ZM240.95 179.185C223.547 179.185 209.389 165.026 209.389 147.624C209.389 130.221 223.547 116.063 240.95 116.063C258.354 116.063 272.511 130.222 272.511 147.624C272.511 165.026 258.354 179.185 240.95 179.185Z" fill="#1E1E1E"/>
<path d="M240.95 129.638C231.032 129.638 222.963 137.707 222.963 147.625C222.963 157.542 231.032 165.611 240.95 165.611C250.867 165.611 258.936 157.542 258.936 147.625C258.936 137.707 250.867 129.638 240.95 129.638ZM240.95 155.43C236.646 155.43 233.145 151.928 233.145 147.625C233.145 143.321 236.646 139.819 240.95 139.819C245.254 139.819 248.755 143.321 248.755 147.625C248.755 151.928 245.254 155.43 240.95 155.43Z" fill="#1E1E1E"/>
<path d="M34.2762 34.6152H22.0589C19.247 34.6152 16.9683 36.8945 16.9683 39.7059C16.9683 42.5172 19.247 44.7965 22.0589 44.7965H34.2762C37.0881 44.7965 39.3668 42.5172 39.3668 39.7059C39.3668 36.8945 37.0881 34.6152 34.2762 34.6152Z" fill="#FC6422"/>
<path d="M34.2762 50.4521H22.0589C19.247 50.4521 16.9683 52.7314 16.9683 55.5428C16.9683 58.3541 19.247 60.6334 22.0589 60.6334H34.2762C37.0881 60.6334 39.3668 58.3541 39.3668 55.5428C39.3668 52.7314 37.0881 50.4521 34.2762 50.4521Z" fill="#FC6422"/>
<path d="M34.2762 66.2891H22.0589C19.247 66.2891 16.9683 68.5683 16.9683 71.3797C16.9683 74.191 19.247 76.4703 22.0589 76.4703H34.2762C37.0881 76.4703 39.3668 74.191 39.3668 71.3797C39.3668 68.5683 37.0881 66.2891 34.2762 66.2891Z" fill="#FC6422"/>
<path d="M34.2762 82.1265H22.0589C19.247 82.1265 16.9683 84.4058 16.9683 87.2171C16.9683 90.0284 19.247 92.3077 22.0589 92.3077H34.2762C37.0881 92.3077 39.3668 90.0284 39.3668 87.2171C39.3668 84.4058 37.0881 82.1265 34.2762 82.1265Z" fill="#FC6422"/>
<path d="M277.941 34.6152H265.723C262.912 34.6152 260.633 36.8945 260.633 39.7059C260.633 42.5172 262.912 44.7965 265.723 44.7965H277.941C280.753 44.7965 283.031 42.5172 283.031 39.7059C283.031 36.8945 280.753 34.6152 277.941 34.6152Z" fill="#FC6422"/>
<path d="M277.941 50.4521H265.723C262.912 50.4521 260.633 52.7314 260.633 55.5428C260.633 58.3541 262.912 60.6334 265.723 60.6334H277.941C280.753 60.6334 283.031 58.3541 283.031 55.5428C283.031 52.7314 280.753 50.4521 277.941 50.4521Z" fill="#FC6422"/>
<path d="M277.941 66.2891H265.723C262.912 66.2891 260.633 68.5683 260.633 71.3797C260.633 74.191 262.912 76.4703 265.723 76.4703H277.941C280.753 76.4703 283.031 74.191 283.031 71.3797C283.031 68.5683 280.753 66.2891 277.941 66.2891Z" fill="#FC6422"/>
<path d="M277.941 82.1265H265.723C262.912 82.1265 260.633 84.4058 260.633 87.2171C260.633 90.0284 262.912 92.3077 265.723 92.3077H277.941C280.753 92.3077 283.031 90.0284 283.031 87.2171C283.031 84.4058 280.753 82.1265 277.941 82.1265Z" fill="#FC6422"/>
<path d="M165.271 40.0454H134.728C131.916 40.0454 129.637 42.3247 129.637 45.136C129.637 47.9474 131.916 50.2266 134.728 50.2266H165.271C168.083 50.2266 170.362 47.9474 170.362 45.136C170.362 42.3247 168.083 40.0454 165.271 40.0454Z" fill="black"/>
<path d="M165.271 57.0142H134.728C131.916 57.0142 129.637 59.2935 129.637 62.1048C129.637 64.9161 131.916 67.1954 134.728 67.1954H165.271C168.083 67.1954 170.362 64.9161 170.362 62.1048C170.362 59.2935 168.083 57.0142 165.271 57.0142Z" fill="black"/>
<path d="M165.271 73.981H134.728C131.916 73.981 129.637 76.2603 129.637 79.0716C129.637 81.8829 131.916 84.1622 134.728 84.1622H165.271C168.083 84.1622 170.362 81.8829 170.362 79.0716C170.362 76.2603 168.083 73.981 165.271 73.981Z" fill="black"/>
<path d="M93.3327 92.2963C96.1341 92.2963 98.4052 90.0253 98.4052 87.2238C98.4052 84.4224 96.1341 82.1514 93.3327 82.1514C90.5313 82.1514 88.2603 84.4224 88.2603 87.2238C88.2603 90.0253 90.5313 92.2963 93.3327 92.2963Z" fill="#87F966"/>
<path d="M93.3326 76.4611C96.1337 76.4611 98.4045 74.1904 98.4045 71.3892C98.4045 68.5881 96.1337 66.3174 93.3326 66.3174C90.5315 66.3174 88.2607 68.5881 88.2607 71.3892C88.2607 74.1904 90.5315 76.4611 93.3326 76.4611Z" fill="#87F966"/>
<path d="M93.339 60.6257C96.1401 60.6257 98.4108 58.3549 98.4108 55.5538C98.4108 52.7527 96.1401 50.4819 93.339 50.4819C90.5378 50.4819 88.2671 52.7527 88.2671 55.5538C88.2671 58.3549 90.5378 60.6257 93.339 60.6257Z" fill="#87F966"/>
<path d="M93.3391 44.7982C96.1405 44.7982 98.4115 42.5272 98.4115 39.7258C98.4115 36.9243 96.1405 34.6533 93.3391 34.6533C90.5376 34.6533 88.2666 36.9243 88.2666 39.7258C88.2666 42.5272 90.5376 44.7982 93.3391 44.7982Z" fill="#87F966"/>
<path d="M78.4069 92.2963C81.2084 92.2963 83.4794 90.0253 83.4794 87.2238C83.4794 84.4224 81.2084 82.1514 78.4069 82.1514C75.6055 82.1514 73.3345 84.4224 73.3345 87.2238C73.3345 90.0253 75.6055 92.2963 78.4069 92.2963Z" fill="#87F966"/>
<path d="M78.4073 76.4611C81.2084 76.4611 83.4792 74.1904 83.4792 71.3892C83.4792 68.5881 81.2084 66.3174 78.4073 66.3174C75.6062 66.3174 73.3354 68.5881 73.3354 71.3892C73.3354 74.1904 75.6062 76.4611 78.4073 76.4611Z" fill="#87F966"/>
<path d="M78.4141 60.6257C81.2153 60.6257 83.486 58.3549 83.486 55.5538C83.486 52.7527 81.2153 50.4819 78.4141 50.4819C75.613 50.4819 73.3423 52.7527 73.3423 55.5538C73.3423 58.3549 75.613 60.6257 78.4141 60.6257Z" fill="#87F966"/>
<path d="M78.4142 44.7982C81.2157 44.7982 83.4867 42.5272 83.4867 39.7258C83.4867 36.9243 81.2157 34.6533 78.4142 34.6533C75.6128 34.6533 73.3418 36.9243 73.3418 39.7258C73.3418 42.5272 75.6128 44.7982 78.4142 44.7982Z" fill="#87F966"/>
<path d="M221.619 92.2963C224.421 92.2963 226.692 90.0253 226.692 87.2238C226.692 84.4224 224.421 82.1514 221.619 82.1514C218.818 82.1514 216.547 84.4224 216.547 87.2238C216.547 90.0253 218.818 92.2963 221.619 92.2963Z" fill="#87F966"/>
<path d="M221.619 76.4611C224.42 76.4611 226.691 74.1904 226.691 71.3892C226.691 68.5881 224.42 66.3174 221.619 66.3174C218.818 66.3174 216.547 68.5881 216.547 71.3892C216.547 74.1904 218.818 76.4611 221.619 76.4611Z" fill="#87F966"/>
<path d="M221.627 60.6257C224.428 60.6257 226.698 58.3549 226.698 55.5538C226.698 52.7527 224.428 50.4819 221.627 50.4819C218.825 50.4819 216.555 52.7527 216.555 55.5538C216.555 58.3549 218.825 60.6257 221.627 60.6257Z" fill="#87F966"/>
<path d="M221.626 44.7982C224.428 44.7982 226.699 42.5272 226.699 39.7258C226.699 36.9243 224.428 34.6533 221.626 34.6533C218.825 34.6533 216.554 36.9243 216.554 39.7258C216.554 42.5272 218.825 44.7982 221.626 44.7982Z" fill="#87F966"/>
<path d="M206.695 92.2963C209.496 92.2963 211.767 90.0253 211.767 87.2238C211.767 84.4224 209.496 82.1514 206.695 82.1514C203.893 82.1514 201.622 84.4224 201.622 87.2238C201.622 90.0253 203.893 92.2963 206.695 92.2963Z" fill="#87F966"/>
<path d="M206.694 76.4611C209.496 76.4611 211.766 74.1904 211.766 71.3892C211.766 68.5881 209.496 66.3174 206.694 66.3174C203.893 66.3174 201.623 68.5881 201.623 71.3892C201.623 74.1904 203.893 76.4611 206.694 76.4611Z" fill="#87F966"/>
<path d="M206.694 60.6257C209.496 60.6257 211.766 58.3549 211.766 55.5538C211.766 52.7527 209.496 50.4819 206.694 50.4819C203.893 50.4819 201.623 52.7527 201.623 55.5538C201.623 58.3549 203.893 60.6257 206.694 60.6257Z" fill="#87F966"/>
<path d="M206.701 44.7982C209.502 44.7982 211.773 42.5272 211.773 39.7258C211.773 36.9243 209.502 34.6533 206.701 34.6533C203.899 34.6533 201.628 36.9243 201.628 39.7258C201.628 42.5272 203.899 44.7982 206.701 44.7982Z" fill="#87F966"/>
<path d="M157.473 162.849C160.274 162.849 162.545 160.579 162.545 157.777C162.545 154.976 160.274 152.706 157.473 152.706C154.672 152.706 152.401 154.976 152.401 157.777C152.401 160.579 154.672 162.849 157.473 162.849Z" fill="#87F966"/>
<path d="M157.473 147.015C160.274 147.015 162.545 144.745 162.545 141.943C162.545 139.142 160.274 136.872 157.473 136.872C154.672 136.872 152.401 139.142 152.401 141.943C152.401 144.745 154.672 147.015 157.473 147.015Z" fill="#87F966"/>
<path d="M157.473 131.181C160.274 131.181 162.545 128.91 162.545 126.108C162.545 123.307 160.274 121.036 157.473 121.036C154.671 121.036 152.4 123.307 152.4 126.108C152.4 128.91 154.671 131.181 157.473 131.181Z" fill="#87F966"/>
<path d="M157.479 115.345C160.28 115.345 162.551 113.074 162.551 110.273C162.551 107.472 160.28 105.201 157.479 105.201C154.678 105.201 152.407 107.472 152.407 110.273C152.407 113.074 154.678 115.345 157.479 115.345Z" fill="#87F966"/>
<path d="M142.541 162.849C145.342 162.849 147.613 160.579 147.613 157.777C147.613 154.976 145.342 152.706 142.541 152.706C139.74 152.706 137.469 154.976 137.469 157.777C137.469 160.579 139.74 162.849 142.541 162.849Z" fill="#87F966"/>
<path d="M142.547 147.015C145.349 147.015 147.619 144.745 147.619 141.943C147.619 139.142 145.349 136.872 142.547 136.872C139.746 136.872 137.476 139.142 137.476 141.943C137.476 144.745 139.746 147.015 142.547 147.015Z" fill="#87F966"/>
<path d="M142.547 131.181C145.349 131.181 147.62 128.91 147.62 126.108C147.62 123.307 145.349 121.036 142.547 121.036C139.746 121.036 137.475 123.307 137.475 126.108C137.475 128.91 139.746 131.181 142.547 131.181Z" fill="#87F966"/>
<path d="M142.547 115.345C145.349 115.345 147.619 113.074 147.619 110.273C147.619 107.472 145.349 105.201 142.547 105.201C139.746 105.201 137.476 107.472 137.476 110.273C137.476 113.074 139.746 115.345 142.547 115.345Z" fill="#87F966"/>
<path d="M24.4244 207.674C27.2255 207.674 29.4963 205.403 29.4963 202.602C29.4963 199.801 27.2255 197.53 24.4244 197.53C21.6233 197.53 19.3525 199.801 19.3525 202.602C19.3525 205.403 21.6233 207.674 24.4244 207.674Z" fill="#FC6422"/>
<path d="M41.3985 207.674C44.1996 207.674 46.4704 205.403 46.4704 202.602C46.4704 199.801 44.1996 197.53 41.3985 197.53C38.5974 197.53 36.3267 199.801 36.3267 202.602C36.3267 205.403 38.5974 207.674 41.3985 207.674Z" fill="#FC6422"/>
<path d="M58.3712 207.674C61.1723 207.674 63.4431 205.403 63.4431 202.602C63.4431 199.801 61.1723 197.53 58.3712 197.53C55.5701 197.53 53.2993 199.801 53.2993 202.602C53.2993 205.403 55.5701 207.674 58.3712 207.674Z" fill="#FC6422"/>
<path d="M75.3459 207.681C78.1473 207.681 80.4183 205.41 80.4183 202.608C80.4183 199.807 78.1473 197.536 75.3459 197.536C72.5445 197.536 70.2734 199.807 70.2734 202.608C70.2734 205.41 72.5445 207.681 75.3459 207.681Z" fill="#FC6422"/>
<path d="M224.653 207.674C227.455 207.674 229.725 205.403 229.725 202.602C229.725 199.801 227.455 197.53 224.653 197.53C221.852 197.53 219.582 199.801 219.582 202.602C219.582 205.403 221.852 207.674 224.653 207.674Z" fill="#FC6422"/>
<path d="M241.629 207.674C244.43 207.674 246.7 205.403 246.7 202.602C246.7 199.801 244.43 197.53 241.629 197.53C238.827 197.53 236.557 199.801 236.557 202.602C236.557 205.403 238.827 207.674 241.629 207.674Z" fill="#FC6422"/>
<path d="M258.604 207.674C261.405 207.674 263.675 205.403 263.675 202.602C263.675 199.801 261.405 197.53 258.604 197.53C255.802 197.53 253.532 199.801 253.532 202.602C253.532 205.403 255.802 207.674 258.604 207.674Z" fill="#FC6422"/>
<path d="M275.572 207.681C278.373 207.681 280.644 205.41 280.644 202.608C280.644 199.807 278.373 197.536 275.572 197.536C272.771 197.536 270.5 199.807 270.5 202.608C270.5 205.41 272.771 207.681 275.572 207.681Z" fill="#FC6422"/>
</svg>
