<svg width="284" height="197" viewBox="0 0 284 197" fill="none" xmlns="http://www.w3.org/2000/svg">
<path d="M137.512 196.604H116.018C114.588 196.604 113.428 195.444 113.428 194.014V100.892H107.285V154.312C107.285 155.741 106.125 156.901 104.696 156.901H83.202C81.7725 156.901 80.6124 155.741 80.6124 154.312V100.892H74.4685V140.132C74.4685 141.562 73.3083 142.722 71.8789 142.722H50.385C48.9555 142.722 47.7954 141.562 47.7954 140.132V100.892H41.6541V115.861C41.6541 117.29 40.4939 118.451 39.0645 118.451H17.5706C16.1411 118.451 14.981 117.29 14.981 115.861V100.892H2.58962C1.16015 100.892 0 99.7315 0 98.3021C0 96.8726 1.16015 95.7124 2.58962 95.7124H14.981V80.7431C14.981 79.3137 16.1411 78.1535 17.5706 78.1535H39.0645C40.4939 78.1535 41.6541 79.3137 41.6541 80.7431V95.7124H47.798V56.4719C47.798 55.0424 48.9581 53.8823 50.3876 53.8823H71.8814C73.3109 53.8823 74.4711 55.0424 74.4711 56.4719V95.7124H80.6149V42.2924C80.6149 40.8629 81.7751 39.7028 83.2046 39.7028H104.698C106.128 39.7028 107.288 40.8629 107.288 42.2924V95.7124H113.431V2.58962C113.431 1.16015 114.591 0 116.02 0H137.514C138.944 0 140.104 1.16015 140.104 2.58962V95.7124H146.248V64.2705C146.248 62.8411 147.408 61.6809 148.837 61.6809H170.331C171.761 61.6809 172.921 62.8411 172.921 64.2705V95.7124H179.063V28.1129C179.063 26.6835 180.223 25.5233 181.653 25.5233H203.148C204.578 25.5233 205.738 26.6835 205.738 28.1129V95.7124H211.88V56.4719C211.88 55.0424 213.04 53.8823 214.47 53.8823H235.964C237.393 53.8823 238.553 55.0424 238.553 56.4719V95.7124H244.696V89.7951C244.696 88.3657 245.856 87.2055 247.286 87.2055H268.779C270.209 87.2055 271.369 88.3657 271.369 89.7951V95.7124H281.41C282.84 95.7124 284 96.8726 284 98.3021C284 99.7315 282.84 100.892 281.41 100.892H271.369V106.81C271.369 108.24 270.209 109.4 268.779 109.4H247.286C245.856 109.4 244.696 108.24 244.696 106.81V100.892H238.553V140.132C238.553 141.562 237.393 142.722 235.964 142.722H214.47C213.04 142.722 211.88 141.562 211.88 140.132V100.892H205.738V168.491C205.738 169.921 204.578 171.081 203.148 171.081H181.653C180.223 171.081 179.063 169.921 179.063 168.491V100.892H172.921V132.334C172.921 133.763 171.761 134.923 170.331 134.923H148.837C147.408 134.923 146.248 133.763 146.248 132.334V100.892H140.104V194.014C140.101 195.445 138.942 196.604 137.512 196.604ZM118.609 191.425H134.923V184.346H118.609V191.425ZM118.609 179.167H134.923V100.89H118.609V179.167ZM184.24 165.902H200.556V100.892H184.24V165.902ZM85.7929 151.722H102.108V100.892H85.7929V151.722ZM217.056 137.543H233.37V100.892H217.056V137.543ZM52.9772 137.543H69.2918V100.892H52.9772V137.543ZM151.424 129.744H167.739V100.892H151.424V129.744ZM20.1602 113.271H36.4748V100.892H20.1602V113.271ZM249.871 104.221H266.186V100.892H249.871V104.221ZM249.871 95.7124H266.186V92.3848H249.871V95.7124ZM217.056 95.7124H233.37V59.0615H217.056V95.7124ZM184.24 95.7124H200.556V30.7026H184.24V95.7124ZM151.424 95.7124H167.739V66.8602H151.424V95.7124ZM118.609 95.7124H134.923V16.3444H118.609V95.7124ZM85.7929 95.7124H102.108V44.882H85.7929V95.7124ZM52.9772 95.7124H69.2918V59.0615H52.9772V95.7124ZM20.1602 95.7124H36.4748V83.3327H20.1602V95.7124ZM118.609 11.1652H134.923V5.17795H118.609V11.1652Z" fill="white"/>
</svg>
